<svg xmlns="http://www.w3.org/2000/svg" version="1.0" viewBox="0 0 1280 660">
<!-- width="124" height="68"  -->
  <path d="M364.5.6c-35.2 1.7-61.4 3.7-94.2 7-7 .8-7.4 1.9-1 2.8 6.6 1 15.6 5.7 21.7 11.4l5.6 5 32.4-3.3c77.5-8 126.2-9.9 191.5-7.5 41.5 1.6 81.3 4.7 117.2 9 27.6 3.4 28.4 2.2 2.3-3.4-45.4-9.7-83.5-14.7-146.4-19.2C474 1 382.1-.3 364.5.6z"/>
  <path d="M226.5 13.4c-37.4 8.1-76 28.1-111 57.5-13.8 11.5-32.1 29.7-38.4 38.1-7.3 9.8-13 15.3-18.6 18-2.5 1.2-12.5 3.7-22.7 5.6-21.2 3.9-19.6 2.9-27.1 18-6.3 12.5-8 17.3-6.4 17.9.7.3 22.9 5.1 49.5 10.8l48.2 10.3 1.4-2.1c.8-1.2 4.4-8.2 8.1-15.6 5.4-10.8 8.1-14.8 13.6-20.6 3.7-4 7.4-8.5 8.2-10 .8-1.5 2.7-8.9 4.2-16.3 5.3-26.2 14.1-54.8 20.6-67.1 5.8-10.9 12.3-15 35.9-22.8 55.1-18.1 77.1-13.4 96 20.5 2.2 3.9 6.2 12.7 8.9 19.5 7.8 19.8 26.2 74.6 28 83.5l1.6 8.1 10 .2c5.5.1 11.5.4 13.3.7 1.7.4 3.2.2 3.2-.3s-4.2-11.7-9.3-24.9c-5.2-13.1-13.3-34.3-18.2-46.9-15-39.4-27.4-63.6-36.8-72-9.7-8.8-17.8-11.4-37.7-12-11.7-.5-15-.2-24.5 1.9zM137 64.2c0 1.7-13.7 43.9-17.1 53-1.7 4.2-3.6 8.1-4.3 8.7-.9.8-5.5.7-16.6-.4-8.4-.9-15.7-1.8-16.3-2.2-1.6-1 0-9.8 2.9-16 4.5-9.5 21.3-25.4 41.4-39.1 7.6-5.2 10-6.2 10-4z"/>
  <path d="M124.9 73.2C100.8 90 87.3 105 85.3 117.4c-.6 3.9-.3 4 12.2 5.1 3.9.3 9.1.8 11.7 1.1 4.7.6 4.7.6 6.3-3.3 2.5-5.6 17.6-51.5 17.2-51.9-.2-.2-3.7 1.9-7.8 4.8zM424.5 18.7c-21.6.8-71.6 4.9-108 8.9-20.7 2.2-19.2 1.3-14.5 8.9 9.3 15.3 14.7 27.6 34.9 80.5 7.7 20.1 15.3 39.6 16.9 43.5l2.9 7 9.9-.2c5.4-.1 14.6-1.1 20.4-2.3 5.8-1.1 18.8-3.2 29-4.5 23.1-3.2 29.9-5 43.6-11.9l10.9-5.4 36-5.1c94.3-13.3 98.4-13.6 209.3-13.6 90.4 0 92.3 0 90-1.9-3.2-2.6-50.4-36.2-67.8-48.3-33.7-23.4-65.2-41.5-75.3-43.3-18.2-3.3-93.3-10.3-128.2-12-17.8-.9-88.8-1.1-110-.3zM228 28.5c-9.8 1.7-16.9 3.6-33.8 9-24.6 7.9-29.6 11-35.6 21.9-6.2 11.1-14.7 39.2-21.1 69.8-2.5 11.9-2.6 12.8-1 15.1 3 4.7 11.8 6.7 36 8.3 9.4.6 9.9.5 8.4-1.1-1.4-1.4-4.4-1.8-16-2.4-14.8-.8-17.7-1.5-20.3-5.3-3.4-4.8-1.5-20.7 5.8-49.3 7-27.5 8-30.2 14.7-39.1 3.6-5 4.2-5.3 14.6-8.7 22.9-7.4 45.7-11.3 62.3-10.4 15 .7 20.5 3 29.5 12.1 9.6 9.7 11.8 14.4 26.2 54.6 3 8.5 7.8 22.5 10.5 31 10 31.6 10.3 32.3 12.2 32.6 4.5.7 3.1-5.8-9.9-44.5-12.8-38-15.4-45-21.5-58-10.8-22.6-20.8-32.3-36.9-35.7-7.9-1.6-14.1-1.6-24.1.1z"/>
  <path d="M219 40.1c-18.4 3.3-40.8 9.2-47.1 12.5-3.5 1.8-9.4 10.6-11.9 17.9-2.7 7.8-10.4 38.6-12.5 50-1 4.9-1.7 11.6-1.7 14.8 0 9.5.9 10 21.8 11.2l10.2.6-1.1-3.9c-1.3-5 .6-14.7 4-20 6.4-9.9 22.1-14.7 51.3-15.9 22.4-.9 36.9 1.7 45.2 8.1 4 3 4.8 3.2 4.8 1.2 0-.7 1.8-7 4-13.9l4.1-12.6-3.7-9.8c-7.9-21.3-16.2-32.6-27.6-37.9-5.9-2.6-7.3-2.8-20.3-3-7.7-.2-16.5.2-19.5.7z"/>
  <path d="M287.7 106.9c-2.1 6.7-3.9 14.9-4.1 18.3-.2 3.6-1.4 8.9-2.8 12.3-3.5 8.8-4 8.9-36.8 8.1-14.6-.3-34.6-1.3-44.5-2.1-9.9-.8-18.5-1.5-19.2-1.5-1.9 0-.4 3.4 3.5 7.8l3.7 4.2 45.5 4.4c69.7 6.9 81 7.9 81.5 7.4.9-.8-16.7-56.1-21.2-66.7l-1.9-4.4-3.7 12.2zM780.1 101.3c4.1 2.9 9.6 6.8 12.3 8.6l4.9 3.4-.6-4.8c-.6-5.9-1.7-6.8-12-10-12.1-3.9-13.1-3.3-4.6 2.8zM67.7 108c-8.3 1.4-28.9 8.1-35 11.3-5.7 3-11.7 8.9-11.7 11.4 0 1.7-.8 1.7 16-1.3 15.3-2.7 19.3-4 25.2-8 4.2-2.9 13.6-14.5 11.6-14.3-.7.1-3.5.5-6.1.9z"/>
  <path d="M217 111c-23.8 3-34.3 9.1-37.1 21.4-.7 3.1-1 5.8-.8 6 2.5 2.4 87.1 6 94.6 4 1.6-.4 2.9-2.4 4.8-7.3 3.9-10.4 3.4-13-3.8-18-7.5-5.1-13.3-6.3-33.2-6.6-9.9-.2-20.9 0-24.5.5zM666.5 126.7c-37 .5-68.2 2.6-107.5 7.3-19.1 2.2-74.3 10-74.8 10.5-.2.2 1.8.6 4.5.9C593 159 636.9 166.6 698.5 182.1c85.2 21.4 147.6 44.8 224.2 84.1l23.2 11.9 8.8-3.5c17-6.8 42.4-13.1 82.9-20.5 42.1-7.8 78.3-13 108.7-15.6 19.7-1.7 63-2 69.2-.6 2.2.6 4.1.8 4.3.6 1.3-1.3-30.1-19.2-59.3-33.8-22.3-11.2-34.3-16-63.5-25.5-32.6-10.7-50.3-15.5-87-23.6-44.5-9.9-61.6-13.2-79-15.1-8-1-31.6-3.9-52.5-6.7-36-4.7-39.8-5-71-5.8-35.7-.9-115.2-1.6-141-1.3zM1066 171c12.9 3.9 25.6 8.1 28.2 9.2 4.7 2 6 3.9 3.6 5.5-.7.4-13.2.6-27.8.5-26.2-.3-52.1 1-86 4.4-32.8 3.2-69.1 7.5-83 9.9-39.3 6.8-40.6 7-51.4 5.7-11.9-1.3-39.4-8.2-59.1-14.7-13.8-4.6-16.5-5.8-15.2-7.1.9-.9 48.2-8.7 71.7-11.8 53.1-7.1 95.3-9.5 154.5-9.1l41 .3 23.5 7.2z"/>
  <path d="M962.5 166.1c-13.7.4-31.3 1.2-39 1.8-33.7 2.6-53.5 4.5-52.8 5.1.5.4 2.2 1.2 3.8 1.8 1.7.5 14 5.1 27.5 10.1l24.5 9.1 26-3c29.4-3.3 55.8-5.6 75.3-6.6 7.3-.4 12.9-1 12.5-1.4-1-.8-51.6-18.1-52.3-17.9-.3.1-11.7.6-25.5 1zM1026.5 174.3l25 8.4 21.3.7c11.6.3 21.2.4 21.2.1 0-.9-4.1-2.2-28.5-9.7l-23-7-20.5-.5-20.5-.4 25 8.4zM841 176.1c-14.4 2.1-56 8.9-57.5 9.3-1.7.5 23.2 8.4 42 13.2 16.6 4.4 19 4.7 30.5 4.8 10.3.1 16.3-.6 34-3.7 11.8-2.1 23-4.1 24.9-4.5 3.2-.7.8-1.7-24.5-11-31.2-11.4-29.2-11.1-49.4-8.1zM125.4 152.8c-5.9 6.3-8.4 10.3-14.3 22-3.9 7.9-6.9 14.7-6.6 15.2 1 1.7 4.1 1.1 6.1-1.1 1.5-1.7 2.6-2 5.8-1.4 3.7.5 4.3.3 7.1-3 6-7.1 14.4-5.4 13.1 2.6-.5 2.9-.1 4.6 1.6 7.3 1.3 1.9 3 3.7 3.8 4 1.3.4 42.4 9.2 133.9 28.6 10.6 2.3 19.4 4 19.6 3.8.1-.2 3.2-8.9 7-19.3 3.7-10.5 8.7-23.7 11.1-29.3 2.4-5.7 4.4-10.7 4.4-11.2 0-.4-1.5-1-3.2-1.4-3.5-.7-81.1-8.4-136.7-13.6-28.5-2.6-33-3.3-37.8-5.4-2.9-1.4-5.6-3.2-5.9-4.1-.3-.8-.9-1.5-1.3-1.4-.3 0-3.8 3.5-7.7 7.7zM463.5 149.8c-9 4.4-9 4.4 4.5 5.7 13.8 1.3 58.4 6.7 76 9.1 76.5 10.5 133.9 25.4 203.5 52.7 30.6 12.1 62 26.1 114 51 29.6 14.2 36.1 17.6 36.3 19.4.4 3-1.9 4-11.9 5.2-11.6 1.5-62.5 3.1-97.6 3.1-16.1 0-29.3.2-29.3.4 0 .3 1.2 3.2 2.6 6.5l2.7 6.1h40.6c65.9 0 99.1-2.2 109.5-7.1 2.5-1.1 8.1-5.2 12.3-9.1 4.3-3.8 9.8-8.4 12.1-10.1l4.4-3.2-32.4-16C859.7 238.1 828 224.7 787 211c-87.8-29.4-163.7-45.6-285.5-61-13.2-1.6-25.4-3.2-27-3.5-2.2-.4-5.3.6-11 3.3z"/>
  <path d="M441.3 159c-3.5 1-12.3 2.6-19.5 3.5-14.5 1.8-30.1 4.2-33.3 5.2-1.1.3 12.2 3 29.5 5.9 55.9 9.3 91.1 17.2 133.5 29.9 64.8 19.5 117.6 42.1 185.7 79.4l18.7 10.2 31.4-.1c54.4-.1 105.3-2.2 107.5-4.5.9-.9-55.8-28.3-91.8-44.5-92.1-41.3-157.2-61.3-240.8-74-29.7-4.5-103.4-13.1-110.5-12.9-2.3.1-7 .9-10.4 1.9z"/>
  <path d="M372 176c149 25 209.3 43.9 292 91.4 9.6 5.5 23.9 13.7 31.7 18.2 7.8 4.4 15.9 8.4 18 8.7 4.5.8 18.8.7 29.3-.2l7.5-.6-14-7.7c-64.4-35.2-106.9-53.9-166.5-73.5-50.1-16.4-94.4-26.6-164-37.9-20.6-3.3-24.5-3.7-45.5-3.9l-23-.2L372 176zM.3 172.8c-1.8 4.4 2.2 48.6 6.7 75.2 1.1 6.3 2.4 16.7 2.9 23 .9 10.6 3.4 20.2 6.3 23.5.4.5.5-11 .2-25.5-.5-22.1-.4-27.7 1-33.9 2.5-11.8 8-19.1 14.4-19.1 4.9 0 15.3 10.4 24 23.9 5.8 9.1 23 49.2 36.4 84.8 1.5 4.2 2.8 5.8 6.1 7.8 8.2 4.8 10.9 8.5 12.6 18l1.7 8.5 14.2 6.4c7.8 3.5 14.2 6.1 14.2 5.7 0-.3-1.6-3.2-3.5-6.4-9.1-15.2-13-23.7-18.7-41.6-2.3-7.5-3.8-10.5-6.8-13.6-5.5-5.7-9-14-15.9-37.5-6.7-22.9-10.4-39-15.2-65.5-1.7-9.9-3.3-18.2-3.5-18.4-.2-.2-17.5-4-38.4-8.5-31.5-6.8-38.3-8-38.7-6.8z"/>
  <path d="M318 179.2c-4 8.7-19 49.1-19 51.4 0 .8 2.7 1.9 7.3 2.8 3.9.9 24.1 5.2 44.7 9.6 20.6 4.4 38.1 8.2 38.9 8.5 1 .4 1.1.9.4 1.6-.6.6-11.3-1.3-31.9-5.6-24.4-5.2-59.2-12.5-59.8-12.5-.6 0 1.6 86.7 2.4 97.8 2 27.8 2.4 39.8 1.1 43.2-.6 1.8-.9 3.5-.7 3.8.3.2 13.5 5.3 29.3 11.2l28.8 10.7.6-20.1c1.4-45 10.8-71.6 34.1-96.2 10.6-11.1 22.1-17.2 38.5-20.4 9.3-1.8 26.3-.9 34.3 2 9.8 3.4 30.6 14.3 38.5 20.2 15.8 11.7 35.6 34.9 53.4 62.5 4 6.2 7.7 11.3 8.1 11.3.5 0 6.9.9 14.2 1.9 7.3 1.1 22.1 2.9 32.8 4.1 10.7 1.1 20.9 2.3 22.7 2.6 3.1.6 3.2.4 7.7-8.3 8-15.3 20.5-30.2 38.1-45.2 10.6-9.1 16.6-13.3 23.6-16.6l5.2-2.4-3.4-1.4c-1.9-.8-13.7-7.5-26.4-14.9-32.9-19.2-42.5-24.5-65.5-35.6-23.9-11.6-37.9-17.3-62-25.3-38.1-12.6-80-22.7-141-33.9-21.8-4-88.2-15-90.5-15-.3 0-2.4 3.7-4.5 8.2zM126.2 185.7l-2.7 2.7 3 1.2c5.6 2.4 7.4 1.2 7.5-4.9 0-2.7-4.7-2.1-7.8 1zM81 189.5c0 1.7 5.7 32.4 8 43.5 5 23.4 15.3 58.7 19.5 67 1.3 2.5 3.5 5.6 5 7l2.8 2.5-.6-11c-.3-7.8-1.8-17-5-31.5-5.4-24.4-7.2-36-9.2-57.9-.8-9-1.6-16.5-1.7-16.6-.6-.3-16.4-3.5-17.6-3.5-.6 0-1.2.2-1.2.5zM103 194.2c0 2.7 3.1 33.6 4 40.1 1.2 8.2 3.3 18.4 6.6 32.7 3.6 15.3 5.4 27.4 5.4 36.5v8.1l12.8 4.8c76.2 29.2 165.9 62.2 166.6 61.5 1.7-1.6 1.8-16.3.2-37.4-.8-11.6-1.9-39.8-2.2-62.7-.4-22.9-1-42.2-1.4-42.8-.7-1.1-3.7-1.8-94.3-21.1L139.8 201l-2.9 2.3c-1.6 1.2-3.2 3.4-3.5 4.9-.8 3.6-4 6.8-6.7 6.8-3.8 0-6.5-2.8-8.3-8.5-1.5-4.6-2.2-5.5-4.6-6-2.2-.5-5.1-3.3-6.2-6.1-.1-.1-1.1-.5-2.3-.8-1.6-.5-2.3-.3-2.3.6z"/>
  <path d="M120.5 204.1c1.6 5.4 3.1 7.4 5.6 7.7 1.9.2 2.8-.3 3.7-2.3 1.8-3.9 1.6-4.3-2.9-5.5-2.2-.6-4.7-1.4-5.6-1.7-1.2-.5-1.4-.1-.8 1.8zM26.7 221.8c-5.3 5.5-7 12.1-7.3 28.2l-.3 14.5 1.4-6.4c2.4-10.2 6.2-17.7 11.8-22.7 2.8-2.5 6.3-4.8 7.9-5.1 1.6-.3 3-.9 3.3-1.3.9-1.4-9.3-10-11.8-10-1.3 0-3.6 1.3-5 2.8z"/>
  <path d="M39 233.7c-4.5 3-9.2 7.8-11 11.3-7.5 14.8-11.2 58.9-7.5 88.5C24 361 26.1 370.8 33.2 393c6.6 20.5 17.4 37.8 26.7 42.7 3.6 1.9 6 2.3 12.5 2.3 7 0 48.7-3.8 61.6-5.6 11-1.6 17.3-7.4 19.6-18.3 1.5-6.9 2.2-6.1-16-16.1-22.5-12.3-25.4-15.9-27.5-34-2.5-21.1-3.3-22.8-13.6-29.3-3.9-2.4-4.4-3.2-12.9-24.8-19.5-49.4-27.7-67.2-34.1-74.2-3.8-4.1-6.6-4.6-10.5-2zm8.2 21.8c16.7 11.4 31 65.7 29.5 112-.7 19.8-2.4 29.5-6.9 38.5-13.4 26.5-35.2-4.6-44.3-63-.9-5.8-1.9-19.5-2.2-30.5-.7-30.4 2.6-47.5 10.7-55.8 4.5-4.5 7.9-4.8 13.2-1.2z"/>
  <path d="M35.8 259c-1.9 1.9-2.8 3.7-2.5 4.8 2.1 6.6 13.8 36.7 14.5 37.4.5.5 1.2-2.7 1.5-7.9.4-4.8 1.6-12.5 2.7-17.1l2-8.3-2.6-3.9c-2.8-4.2-8-8-10.8-8-1 0-3.1 1.4-4.8 3zM29.2 272.2c-.9 3.3-.8 4.7.4 6.7.7 1.4 4.1 10.4 7.4 20 5.6 16.4 6.7 19 7.3 18 4-6.8 4-6.3.6-14.1-1.8-4-5.4-13.4-8-20.8-2.5-7.4-5.1-13.6-5.6-13.7-.6-.2-1.5 1.5-2.1 3.9zM55.1 276.7c-2.8 10.3-4 30-1.9 32.1 2.6 2.6 3.8 1.3 3.8-4.1 0-2.8.7-9.5 1.4-14.7 1.4-8.8 1.3-9.8-.3-13.5l-1.8-4-1.2 4.2zM26.4 287.7c-.8 5.2.1 48.2 1 49.1.3.3 3.8-2.6 7.7-6.5l7.1-7-6.8-20.2c-3.8-11-7.2-20.1-7.6-20.1-.4 0-1 2.1-1.4 4.7zM61.7 291c-.4 1.9-1 8.2-1.4 14-.5 9.4-.3 11.1 1.5 15.3l2.1 4.7 3.5-1.7c2.8-1.3 3.4-2.1 3.1-3.7-.3-1.2-1.4-6.2-2.4-11.1-1.1-5-2.8-11.7-3.9-15l-1.8-6-.7 3.5zM34.7 335.1l-6.4 6.5.8 5c.4 2.7.8 5.6.9 6.4.1 3.4 1.5 4.1 5.1 2.6 1.9-.8 5.1-2.1 7.1-2.9l3.7-1.5-1.5-5.4c-.7-2.9-1.4-7.1-1.5-9.3 0-2.2-.4-4.9-.9-6-.7-1.8-1.4-1.4-7.3 4.6zM65.7 331.7c-1 .9-.8 8.8.2 11.5.5 1.3 2.5 4.1 4.5 6.3l3.6 4-.6-9.5c-.4-5.2-1.1-10.3-1.6-11.3-.9-1.7-4.8-2.4-6.1-1zM63.7 348.7c-.2.4-1 2.5-1.7 4.6-1.2 3.8-1.1 4 3.5 10.8 2.6 3.8 5.6 7.4 6.6 8 1.8.9 1.9.5 1.9-5.7 0-6-.3-7.1-3.5-11.4-4-5.5-6.1-7.4-6.8-6.3zM38.6 357.4c-3.3 1.2-6.1 2.7-6.3 3.3-1.1 3.2 6.2 25.5 12.4 37.8 5.9 11.9 5.9 12.1 4.2-20-1-18.9-1.8-23.6-3.8-23.4-.3 0-3.3 1-6.5 2.3zM51.4 361.3c-.3 1.3-.1 9.2.5 17.6.6 8.4 1.1 18.7 1.1 23 0 6.9.9 10.1 3 10.1.3 0 .5-11.9.5-26.5V359h-2.2c-1.5 0-2.5.8-2.9 2.3zM59.7 366.7c-.9 5-.9 31.3-.1 39.2.8 7.5 2.5 7.8 6.6 1.1 3-4.9 5.5-13.6 6.7-23.3l.7-6.2-4.1-4c-2.3-2.2-5.3-5.5-6.7-7.3l-2.5-3.4-.6 3.9zM1175.5 239.6c-64.4 2.3-189.2 23.8-221.4 38.2l-4.3 2 8.6 4.7 8.7 4.7 18.2-5.6c45.9-14.1 66.2-18.6 119.7-27 22.5-3.5 35.7-5.3 56.5-7.8 13.5-1.6 59.9-1.6 67-.1 2.7.6 5.1 1 5.3.8.2-.1-1.6-1.6-3.9-3.3-2.6-1.9-6.7-3.7-10.8-4.6-7-1.5-28.5-2.5-43.6-2z"/>
  <path d="M1173.5 250.7c-33.9 2.9-97.7 12.7-129.5 19.8-17.5 3.9-38 9.6-61.6 17-14.1 4.5-14.7 4.8-24.7 12.7-20.6 16.3-33.7 31.6-56.2 65.8-19 28.8-19.6 29.8-18.2 30.7.6.4 5 .9 9.7 1.1l8.5.4 8.7-15.4c10.9-19.3 21.8-34.9 35-50.2 17.3-20.1 31.9-30.2 51.8-35.9 13.4-3.9 58-14.3 77.6-18.2 47.2-9.4 107.9-16.5 141.1-16.5 11.4 0 13.4.3 17.3 2.2 5.4 2.8 8.1 6.4 9.1 12 .6 3.7.7 3.2.8-3.3.1-8.5-2.1-17.4-4.7-18.8-4.5-2.4-22.5-4.1-41.3-3.9-10.7.1-21.2.3-23.4.5z"/>
  <path d="M1193 265.7c-39.2 2.5-87.4 9.1-127 17.4-14.3 3-63.1 14.7-63.6 15.2-1.4 1.4-22.8 86.6-22 87.5 1.5 1.4 79.9-11.3 125.6-20.4 32.3-6.4 78.5-17.5 80.2-19.2 1.3-1.3 27.7-81.2 27-81.5-.4-.2-9.5.3-20.2 1zM1217.2 265.6c-1.5 2.9-26.4 78.6-26 79 .6.5 34.9-10.3 35.9-11.3s8.2-26.1 10.4-36.6c.8-3.8 1.5-10.6 1.5-15.2 0-7.5-.3-8.7-2.5-11.4-2.7-3.2-6.2-4.6-13.7-5.6-3.9-.6-4.8-.4-5.6 1.1zM436.5 267.1c-16.2 2.4-29.5 9-40 20-22.4 23.5-32.1 50-33.1 90.9l-.5 18.5 4.7-8.4c3.5-6.3 5.5-11.8 8.4-23 7.6-29.3 13.7-44.2 22.5-55.3C404 303 414 296 423 292.9c9.7-3.4 27.8-3.8 39.1-1 21.7 5.4 40.7 19.8 66.2 50.3l9.7 11.5 11.7 3.1c6.4 1.7 11.8 3 12 2.9.5-.6-16.6-25.7-24.6-36.2-22.7-29.8-52.9-50.7-80.9-56.1-8.1-1.5-10.8-1.6-19.7-.3zM939.5 285.7c-2.7 2-7.7 6.1-11 9.3-6.9 6.5-13.1 10.3-19.5 11.9-6.1 1.5-19.1 3.1-25 3.1h-4.8l-26.3 36.2c-14.4 20-26.6 36.8-27 37.4-.6.7 6.9 2.7 24.4 6.3 13.8 2.8 26 5.1 26.9 5.1 1.1 0 7.1-8.1 17.4-23.8 8.6-13 19.5-28.9 24.2-35.2 9.9-13.2 25-28.7 37-37.9 4.5-3.5 8.2-6.6 8.2-7-.1-.8-16.6-9.1-18.2-9.1-.7 0-3.5 1.7-6.3 3.7z"/>
  <path d="M432.3 293.5c-21.3 3.9-35.1 17.2-45 43.5-2.8 7.3-9.5 31.1-9 31.7.2.2 2-2.1 4-5 14.1-21.4 38.7-36.7 67.7-42.3 13.2-2.5 31.3-1.5 52.8 3 3.4.7 6.2.9 6.2.5 0-.5-3.9-4.3-8.7-8.4-15.8-13.8-30.3-21.1-46.8-23.5-8.8-1.2-12.2-1.1-21.2.5zM726.4 298c-12.4 1.1-18.5 3-27.4 8.9-20.6 13.5-43.1 37.7-52.6 56.3-3.9 7.6-4.4 7.1 7.8 8.3l6.6.7 2.2-4.3c6.6-13 27.3-40.1 35.5-46.3 9.4-7.2 20.3-10 44.5-11.7 9.1-.6 16.7-1.3 16.9-1.5.2-.2-.9-2.8-2.3-5.9l-2.7-5.5-9.7.1c-5.3.1-13.8.5-18.8.9zM990.9 301.5c-6.8 2.5-16.4 7.7-21.9 11.8-12 9-27.9 27-42.3 47.8-7.2 10.4-20 32.9-19.3 33.7.7.6 67.5-7.4 68.3-8.2.3-.3 3.1-11 6.3-23.8 5-20.1 14.1-55.6 15.6-61.1.6-2.1-1.5-2.2-6.7-.2z"/>
  <path d="M794 312.1c-58 .6-67.6 1.2-79 4.5-9.3 2.7-18.4 8.5-21 13.4-.9 1.7.5 1.8 25.8 1.7 26.1-.2 26.7-.2 26.7 1.8 0 1.9-.8 2-29.2 2.5-17.6.3-29.5.9-30.1 1.5-6.3 7.4-15.2 19.7-15.2 21.2 0 .4 16.4.7 36.5.5 33-.2 36.6-.1 37.2 1.4.3.9 0 2-.8 2.5s-18.3.9-38.9.9h-37.6l-2.6 5.4c-4 8.1-4.5 11.9-1.8 14.6 2.2 2.2 2.4 2.2 25.9 1.6 13-.3 48-.9 77.9-1.2l54.2-.7 14.4-19.6c22.3-30.6 37.6-51.9 37.6-52.5 0-.4-4.8-.5-10.7-.4-6 .1-37.1.5-69.3.9zm6.9 4.4c1.7.8 4.3 3.4 5.9 5.7 2.5 3.9 2.7 4.8 2.6 15.2 0 16.7-3.7 27.1-11.9 34.4-10 8.8-28 8.1-34.3-1.3-3.6-5.2-7.3-15.1-7.9-21-1-9.9 6-27.1 12.7-30.9 7.5-4.4 26.2-5.6 32.9-2.1z"/>
  <path d="M778.1 318.1c-10.3 1.7-14.1 5.7-18.2 19.3-2.7 8.6-2.1 15.7 1.9 24.7 4.5 9.7 8.9 12.9 18 12.9 7.7 0 12.3-1.8 17.3-6.9 6.2-6.1 9-14.6 9.6-29.1.4-9.6.2-10.8-1.9-14.4-4.2-7.2-11.6-9-26.7-6.5zm-.7 7.9c7.7 2.9 7.7 23.3 0 30.2-7.7 6.8-15.6 1.3-15.6-11 0-7.2 2.4-13.3 6.8-17.2 3.7-3.2 4.9-3.5 8.8-2z"/>
  <path d="M1233.4 323.7c-1.6 5.8-3.4 11.2-4 11.8-1.3 1.2-33.5 11.4-53.9 16.9-58 15.7-159.6 33.6-245.5 43.1-13.9 1.5-24.6 3.2-26.2 4.1-4.8 2.6-13.4 1.6-47.7-5.7l-33.6-7-70.8.7c-38.9.4-70.6.8-70.4 1 .3.3 31.8 7.4 43.7 9.8 21.6 4.4 46.2 7.8 72.5 10.1 27.5 2.4 112.5 6.7 118.5 6 3-.3 19.7-2.6 37-5.1 112.9-16 187.5-28.8 226.5-38.9 18.3-4.7 27.8-7.8 44.5-14.5 29.9-12 35-14.9 35-20.4 0-3.6-4.1-10.6-8.6-14.8-2.4-2.2-12.1-7.8-13.6-7.8-.3 0-1.8 4.8-3.4 10.7zM119.3 315.7c.2.5 2.1 6 4.2 12.3 4.2 13 8 21 16.8 35.7l6.1 10.2 81.9 35.6c45 19.6 82.1 35.4 82.4 35.2.2-.3-1.5-4.3-3.8-8.8-4.1-8.2-4.3-8.9-7.1-31.4-1.6-12.7-3-23.1-3.1-23.1-.1-.1-9-3.4-19.7-7.4-42-15.6-110.7-41.3-133.3-49.9-13.2-5-24.1-9.1-24.4-9.1-.2 0-.2.3 0 .7zM449.3 324.4c-15 2.9-28.9 8.8-42.1 17.9-19 13.1-35.8 39.1-45.6 70.7-8.7 28.2-10.4 44.4-7.1 70.5 3.6 29.2 9.1 48.1 20.6 70.6 20.4 40.1 49.8 69.9 82.3 83.6 22.3 9.4 44.8 13.9 66.1 13 24.4-.9 42.9-8.3 71.8-28.5l10.8-7.5-.7-6c-.7-5.6-.5-6.4 3.6-14.7l4.3-8.8-4.4-20.6c-2.4-11.3-4.6-20.2-4.9-19.8-.4.4-1.2 2.7-1.9 5-2.1 7.3-7.8 19.1-13.5 27.6-15 22.5-38.3 38-64 42.5-8.6 1.6-26 1.3-36.1-.4-26-4.6-55.5-22.8-74.5-45.9-37.6-46.1-47.3-108.5-24.4-157.1 5.2-11.1 11-19.3 20.3-28.8 9.6-9.8 20.4-17.3 31.5-21.7 14.3-5.7 18.7-6.5 37.1-6.5 15 0 17.9.3 24.5 2.3 9.1 2.8 19.9 8.2 38.4 19.1 7.6 4.4 14 8.1 14.3 8.1.8 0-5.9-11.3-15.3-25.5-5-7.7-13.3-18.6-18.2-24.1l-9-10.1-13.9-2.8c-16.8-3.3-38.7-4.2-50-2.1z"/>
  <path d="M1261.7 334c.7 6.1-1.8 9-11.6 13.9-10.1 5.1-35.2 15.1-47.3 19-39.6 12.6-112.7 25.8-258.3 46.7-30.5 4.4-34.2 4.5-88.6 1.4-68.2-3.7-94.4-6.5-130.4-13.6-20.4-4-57.7-12.4-60.8-13.6-3.6-1.4-6-6-5.2-9.8.6-2.8.5-2.8-4.7-3.4-2.9-.3-7.1-.7-9.2-.8l-4-.3-1.9 6c-3.4 11.1-.9 17.9 8.6 23.4 20.4 11.6 88.8 23.9 179.2 32.3 18.4 1.7 87.1 1.7 106 0 87.2-7.9 163-20 227.5-36.2 30.5-7.7 54.9-15.7 92.7-30.6 12-4.7 22.8-9 24-9.5 2.2-.8 2.2-1 .8-5-1.6-4.3-7.7-13.5-13.8-20.4l-3.5-4 .5 4.5z"/>
  <path d="M542 360c.6 1.1 3.7 6.2 6.9 11.3 3.2 5 8.3 13.7 11.4 19.2 15.7 27.9 28.6 69.1 43.8 139.5 6.7 31.2 11.9 54.4 12.3 54.8.2.1 14.8 2.8 32.4 5.9l32 5.7 6.4-4.2c20.2-13.1 31.9-14.5 104.3-12.2 32.8 1.1 45.3 1.1 62.7.1 25.9-1.5 68.5-5.5 69.5-6.5 1.1-1 .9-96.8-.1-117.8l-.8-16.6-29.7.5c-39.6.8-75.1-1.7-134.6-9.3-50.3-6.4-93.2-15.8-109.6-24-13-6.5-16.4-15.2-11.6-29.3l1.5-4.1-3.2-.5c-1.7-.3-13-1.6-25.1-3-12.1-1.4-26.3-3.2-31.5-4-5.2-.8-9.6-1.2-9.8-1-.3.2 2.3 5.3 5.8 11.2 8.2 14.4 20.7 40.2 25.9 53.6 2.3 5.9 6.9 19 10.2 29.2 3.3 10.2 6.4 18.5 6.9 18.5s9.7 1.6 20.6 3.5c10.8 1.9 36.6 6 57.3 9.1 20.7 3 38 5.9 38.5 6.4 1.7 1.6-4.4 15.9-8.3 19.4-2.9 2.6-6.4 2.4-40.1-2.5-60.3-8.6-63-9.2-66.3-14.8-.9-1.5-2.5-6.8-3.6-11.7-2-9.1-8.7-31-13.5-44.2-7.7-21.6-22.1-51.9-33.4-70.7l-4.8-8-10.4-2.7c-13.1-3.4-13.4-3.4-12-.8zm311.1 136.8c16 4.5 25.9 15.5 25.9 28.8 0 9.8-8.3 25.5-17.4 32.7-6.2 4.9-21 12.1-29.1 14.2-14.6 3.8-27 3-41.7-2.6-6.5-2.5-8.6-4-13.4-9.2-8-8.6-9.8-13.1-9.1-22.5.4-5.1 1.4-9.1 3.2-12.7 3.1-6.4 12.1-16 19-20.4 4.7-3 19.2-8.1 28.8-10.1 6.6-1.4 26.3-.4 33.8 1.8z"/>
  <path d="M817.5 498.5c-3.3.8-8.7 2.3-12 3.3-5.8 1.8-6 2-5.5 4.8.3 1.6.5 6 .5 9.9 0 8.6-3.5 16.8-9.8 23.3-4.4 4.5-8.6 6.2-15.5 6.2h-4.3l2.7 5.1c4.5 8.1 11.6 13.9 21.5 17.4 7.5 2.7 9.7 3 19.9 3 13.7 0 21.9-2.2 35-9.3 10.7-5.8 16.7-11.7 21.5-21.5 6.7-13.6 5.8-23.3-3.1-32.1-2.4-2.4-6.3-5.4-8.7-6.5-9.7-4.7-29.8-6.4-42.2-3.6zM467.7 362.1c-12.9 1.3-30.7 7.2-30.7 10.2 0 2.1 19.2 30 29.6 42.8 5.1 6.4 12.3 14.4 15.9 17.7 9 8.5 11.1 8.4 19.5-.1 3.4-3.4 11-12.2 16.9-19.6 5.8-7.3 13.4-16.8 16.9-21 7.2-8.8 7.7-7.5-5.5-14.7-11.5-6.3-25.6-12.3-32.7-13.9-8-1.7-20.3-2.3-29.9-1.4zM1263.5 367.7c-43.4 17.3-66.2 24.9-101 33.8-59 15.1-137.8 28-210 34.6-13.2 1.2-24.6 2.3-25.3 2.5-1.1.3-1.2 4.3-.5 21.1.4 11.5.8 42 .8 67.9v47.2l5 .6c2.8.3 8.8.6 13.5.5 7.2 0 8.1-.2 6-1.2-8.8-4-13.7-11.4-14.5-21.8-1.1-13.3-2.5-75.3-1.7-76.1.4-.4 12.6-2.3 27.1-4.2 92.3-12.5 195.1-35.3 252.7-56.2 21.6-7.8 57.3-23.4 57.8-25.2 1.3-4.3 6.7-29.4 6.4-29.6-.2-.2-7.5 2.6-16.3 6.1zM113.6 368.7c.8 6.7 3 11.7 7.1 15.5 5.3 5.1 35.8 21.1 71.3 37.5 59 27.4 160.2 73.4 160.6 73.1.2-.2-.1-3.5-.6-7.3-.5-3.9-1.2-10.4-1.5-14.5l-.6-7.6-11.2-4.8c-6.2-2.7-59.2-25.7-117.9-51.2-58.7-25.5-107-46.4-107.3-46.4-.3 0-.2 2.6.1 5.7zM422.8 379.8c-5.4 4.1-6.3 5.2-6.1 7.8.4 5 8.7 20.3 20.1 36.6 6.1 8.7 12.8 19.6 15.1 24.3 5.5 11.2 7 11.6 14.8 4.5 3.1-2.9 7.2-5.9 9-6.8 2-.9 3.3-2.3 3.3-3.4 0-1-4.6-8.5-10.3-16.6-5.7-8.1-15-21.4-20.6-29.6-11.5-16.5-15.7-21.6-17.6-21.6-.8 0-4.2 2.2-7.7 4.8zM300 383.7c.1.4 1.3 10.5 2.9 22.3l2.8 21.5 5.1 10.1 5 10 15.4 6.6c8.4 3.7 16 7 16.9 7.3 1.5.5 1.8-.6 2.4-8.7.8-11.7 3.8-26.5 7.5-38.2 1.6-4.9 2.8-9.1 2.7-9.3-.3-.3-55.3-20.8-58.4-21.7-1.3-.4-2.3-.4-2.3.1zM546.4 390c-3.8 1.5-42.4 50.1-42.4 53.4 0 .3 2.4 1.7 5.3 3 6.3 3 12.6 8.2 17.8 14.8l3.8 4.9 3.1-6.1c1.7-3.3 7.9-14 13.9-23.8 5.9-9.7 12.2-20.5 14-23.8l3.3-6.2-2-3.9c-2.2-4.3-11.4-13.3-13.4-13.2-.7 0-2.2.4-3.4.9zM407.3 394.2c-1.7 1.8-4.9 6-7.1 9.3-15 22.5-22.3 52.9-19.3 80.9.5 5.4 1.2 10.1 1.5 10.4 1 1 15-2 25.5-5.5 12.6-4.2 29.3-11.4 35.6-15.4l4.8-3-.5-7.2c-.6-8.9-3.4-15.2-15.3-34.8-12.4-20.3-16.6-27.7-18.6-32.9-.9-2.4-2.1-4.6-2.6-4.7-.5-.2-2.3 1.1-4 2.9z"/>
  <path d="M1257 402.7c-31.1 13.7-54.6 22.1-87.5 31.2C1104.6 452 1018 469 949 477.3l-10.5 1.2.3 28.5c.2 15.7.8 33.9 1.2 40.4 1.1 14.6 3.4 19.4 11.5 23.5 4.6 2.4 5.9 2.6 18.5 2.5 19.2 0 36.6-3.4 87-16.6 33.3-8.7 48.7-13.3 72-21.5 23.7-8.3 62.4-23.6 76.3-30.1 24.8-11.7 40.3-30 52.1-61.5 3.9-10.5 15-46.7 14.4-47.1-.1-.1-6.8 2.6-14.8 6.1zM562.3 421.8c-7.2 12.4-25.9 47.3-26.8 50-.4 1.3-.1 5.3.6 8.9 1.3 6.5 1.4 6.6 9.4 13.3 9.7 8.1 15.4 12 37.7 25.5 9.5 5.8 17.4 10.1 17.6 9.6 1-2.9-17.8-75.9-23.9-92.9-3.6-10.1-8.2-21.7-8.8-22.4-.4-.4-3 3.2-5.8 8z"/>
  <path d="M1240 481.6c-1.9 2.5-6.1 7-9.4 10-3.2 3-5.7 5.6-5.5 5.8.2.2 1.5.9 2.9 1.6 1.4.7 6.6 4.4 11.6 8.1 4.9 3.8 9.5 6.9 10.2 6.9 1.4 0 3-5.6 3.8-13.1.5-4 .2-7.1-1-10.6-1.6-4.8-7-13.3-8.4-13.3-.4.1-2.3 2.1-4.2 4.6zM618 481.2c0 2.7 3 13.9 4.2 15.7 2.2 3.5 8 5 35.3 9 61.3 9 63.5 9.3 66.1 7.6 2.5-1.6 4.7-5.3 6.9-11.6 1.6-4.5 2.4-4.1-10.8-6-7.5-1-8-1-9.3 1-3.8 5.3-8.3 8.3-12.6 8.3-3.6 0-68.7-10-69.8-10.7-1.5-.9-4-7.4-4-10.3 0-1.8-.6-3.2-1.6-3.6-2.5-1-4.4-.7-4.4.6z"/>
  <path d="M626.6 482.5c-.4 1 1.7 8.1 2.7 9.1.4.5 19.8 3.7 52.5 8.8 15.1 2.4 16.6 2.5 19.5 1.1 2.9-1.4 7.4-6.2 6.5-6.9-.1-.2-14-2.4-30.8-5s-34.9-5.5-40.2-6.5c-6.9-1.2-9.9-1.4-10.2-.6zM429 486.6c-25.2 7.1-44 13.5-45 15.4-.6 1.2-.4 3.9.8 8.1 2.8 9.9 5.2 14.2 8.7 15.1 7.7 2 67.5-8.3 67.5-11.7 0-.3-1.1-2.7-2.4-5.4-2.9-5.7-5.6-15.5-5.6-20.4 0-3-.4-3.7-3.1-4.6-4.1-1.4-2.8-1.6-20.9 3.5zM536.4 498.7c-1.5 7.1-3.9 12.8-7.5 18.2-2.1 3.2-3.9 6.6-3.9 7.5 0 1.1 10 6.6 33 18.1 18.1 9.1 33.8 16.5 34.9 16.5 1 0 2.3-.6 2.9-1.3.8-1 4.3-11 6.6-19.3.5-1.8-.3-2.6-5.6-5.4-11.7-6.2-28.3-16.3-43.3-26.4-8.2-5.6-15.3-10.2-15.7-10.4-.4-.2-1 .9-1.4 2.5zM1212.9 504.6c-21.9 11.2-82.5 34.3-116.4 44.4-16.6 4.9-55.3 15.1-74.3 19.6-29.9 6.9-66.6 11.3-83.6 9.8-11.4-.9-23-.8-29.4.3l-4.3.8 9.3 6.1c5.1 3.4 15.9 11 24.1 16.9l14.7 10.7 9.3-3.1c5-1.7 31.9-9.4 59.7-17.1 92.7-25.9 127.4-37.4 192.5-64 11-4.5 22.4-9 25.3-9.9 2.9-.9 5.4-2 5.4-2.6.2-1.4-16.8-14-20.5-15.2-2.9-.9-4.2-.5-11.8 3.3z"/>
  <path d="M1255 511.5c0 3.5-3.5 6.8-9.5 9-2.8 1-20.5 8-39.5 15.5-66 26.3-93.2 35.2-186 61-23.9 6.7-49.2 13.9-56.1 16-13.7 4.3-16.6 4.7-60.4 7.5-94.7 6-158.6 6-205 0-15.1-1.9-43.4-6.5-67.9-11-10.5-1.9-19.7-3.5-20.6-3.5-1.6 0-1.5 1 .4 12.2l2.1 12.2 19 4.2c10.5 2.3 37 8.8 59 14.5l40 10.4 42.5-.1c51.6-.2 78.6-1.9 156.7-10.2 17.8-1.9 26.7-3.3 27.9-4.3 1-.7 3.6-4.3 6-7.9 6.9-10.7 7.9-11.2 29.8-16.5 21.2-5 49.6-13.3 101.6-29.6 64.5-20.2 103.1-34.2 133.2-48.2l9.8-4.6 3 4.5c1.7 2.4 3.9 4.4 4.9 4.4 4.7 0 13-24.9 11.4-34.4-.6-4.1-2.3-4.9-2.3-1.1zM434.5 525.1c-3.3.5-13.8 1.6-23.3 2.3-9.6.8-17.7 1.8-18.2 2.2-1.2 1.2 8.6 20.5 16.6 32.8 7.7 11.8 22 26.4 33.7 34.4 8.8 6 22 12.9 26.6 13.8l3.1.6v-5.1c0-2.8-.7-12.4-1.6-21.3-.8-9-1.9-23.7-2.2-32.8-.6-14.2-1.1-17.1-3-21.1-1.2-2.6-3.3-5.1-4.8-5.7-2.9-1.4-18.1-1.4-26.9-.1zM476.5 533.4c-1.7 2.5-1.7 4.9-1.2 28.4.7 28.4 2.2 47.9 4 50.1 2.2 2.6 9.1 5.1 14.4 5.1h5.2l.5-4.3c.4-2.3 1.5-13.7 2.6-25.2 1.1-11.6 2.8-27.2 3.7-34.8 1.2-9.8 1.4-14.3.7-15.5-1.6-2.5-10.8-5.3-20-5.9-8-.6-8.2-.5-9.9 2.1zM516.3 537.7c-2.6 2.5-3.2 4-4.6 13.3-3 19.5-6.8 54.4-6.5 60.5l.3 6 9-.1c5-.1 11.9-.9 15.5-1.8 14.2-3.8 34.6-15.5 44.8-25.7 6-6 17.4-22.6 17-24.7-.2-.7-9.3-5.3-20.3-10.1-11-4.9-23.1-10.3-27-12.1-8.8-4-20.2-8-23.1-8-1.2 0-3.5 1.2-5.1 2.7z"/>
  <path d="M883 581c-25.3 2.6-59.1 3.2-100 1.7-66.5-2.3-73.7-1.2-99.6 15.3-1.9 1.2-6.3.6-34.9-4.4-18-3.1-32.8-5.6-32.9-5.4-.1.2-1.6 3.3-3.3 7-2.9 6-3 6.7-1.5 7.2 5.5 1.7 59.5 10.9 79.8 13.6 39.4 5.3 88.8 7.2 137.4 5.1 31.6-1.3 112.1-5.9 116.9-6.7l3.3-.5-4.3-3.1c-2.4-1.7-9.3-6.8-15.4-11.3-6-4.4-15.1-10.7-20-13.8-10-6.2-9.8-6.2-25.5-4.7z"/>
</svg>
